<svg width="901" height="193" viewBox="0 0 901 193" fill="none" xmlns="http://www.w3.org/2000/svg">
<path d="M117.206 66.1326C117.206 60.7423 115.513 55.4882 112.367 51.1119L83.3271 10.7249C80.5917 6.92069 74.5858 8.85574 74.5858 13.5413V179.22C74.5858 183.906 80.5917 185.841 83.3271 182.037L112.367 141.65C115.513 137.274 117.206 132.019 117.206 126.629V66.1326Z" fill="white"/>
<path d="M63.9307 48.0768C63.9307 38.7981 58.9349 30.2381 50.856 25.6744L7.19714 1.01178C3.98114 -0.804925 0 1.51858 0 5.21224V187.549C0 191.243 3.98114 193.567 7.19714 191.75L50.856 167.087C58.9349 162.524 63.9307 153.964 63.9307 144.685V48.0768Z" fill="white"/>
<path d="M181.02 66.1326C181.02 60.7423 182.713 55.4882 185.859 51.1119L214.899 10.7249C217.634 6.92069 223.64 8.85574 223.64 13.5413V179.22C223.64 183.906 217.634 185.841 214.899 182.037L185.859 141.65C182.713 137.274 181.02 132.019 181.02 126.629V66.1326Z" fill="white"/>
<path d="M234.295 48.0768C234.295 38.7981 239.291 30.2381 247.37 25.6744L291.029 1.01178C294.245 -0.804925 298.226 1.51858 298.226 5.21224V187.549C298.226 191.243 294.245 193.567 291.029 191.75L247.37 167.087C239.291 162.524 234.295 153.964 234.295 144.685V48.0768Z" fill="white"/>
<path d="M127.861 19.4117V173.35C127.861 176.955 132.882 177.831 134.104 174.44L148.923 133.289C149.049 132.939 149.113 132.57 149.113 132.199C149.113 132.57 149.177 132.939 149.303 133.289L164.122 174.44C165.344 177.831 170.365 176.955 170.365 173.35V19.4117C170.365 15.8072 165.344 14.9306 164.122 18.322L149.303 59.4731C149.177 59.8226 149.113 60.1913 149.113 60.5628C149.113 60.1913 149.049 59.8226 148.923 59.4731L134.104 18.322C132.882 14.9306 127.861 15.8072 127.861 19.4117Z" fill="white"/>
<path d="M845.327 12.2814H867.107V47.7587H900.564V66.62H867.107V123.204C867.107 135.329 873.844 142.065 884.622 142.065H900.564V160.926H883.05C860.147 160.926 845.327 147.005 845.327 123.878V66.62H822.2V47.7587H845.327V12.2814Z" fill="white"/>
<path d="M773.973 162.723C738.496 162.723 718.062 135.554 718.062 104.343C718.062 73.1316 738.496 45.9624 773.973 45.9624C800.468 45.9624 823.371 61.6801 826.515 87.2776H804.735C802.714 74.4788 789.915 65.0482 774.422 65.0482C751.968 65.0482 740.741 82.5623 740.741 104.343C740.741 126.123 752.192 143.637 774.646 143.637C790.14 143.637 801.367 135.554 804.959 122.755H826.515C822.922 146.556 802.938 162.723 773.973 162.723Z" fill="white"/>
<path d="M687.774 0.380859H709.555V160.926H687.774V66.62H641.295V160.926H619.514V66.62H596.387V47.7587H619.514V36.7562C619.514 14.5268 634.109 0.380859 656.788 0.380859H670.26V19.2422H658.584C648.031 19.2422 641.295 26.2029 641.295 37.4299V47.7587H687.774V0.380859Z" fill="white"/>
<path d="M543.011 162.723C507.983 162.723 486.203 135.104 486.203 103.669C486.203 72.0089 505.962 45.9624 540.766 45.9624C575.794 45.9624 594.431 70.8862 594.431 99.6272C594.431 102.546 594.206 106.139 593.982 108.16H507.534C509.33 129.491 523.252 144.086 543.011 144.086C559.627 144.086 570.405 136.901 573.549 124.102H595.329C591.287 147.454 570.854 162.723 543.011 162.723ZM508.208 92.2174H572.426C571.079 74.9279 559.403 63.4764 540.766 63.4764C523.027 63.4764 511.576 73.3561 508.208 92.2174Z" fill="white"/>
<path d="M368.116 160.927V3.7493H429.64C461.3 3.7493 480.61 22.8352 480.61 50.9026C480.61 67.743 471.404 79.4191 457.483 86.3798C468.934 93.116 476.344 105.466 477.242 120.734L480.386 160.927H457.707L454.564 122.755C453.441 108.834 444.235 98.954 430.763 98.954H391.468V160.927H368.116ZM391.468 78.2964H428.966C449.399 78.2964 457.258 65.0486 457.258 50.9026C457.258 36.5321 449.399 23.9578 428.966 23.9578H391.468V78.2964Z" fill="white"/>
<path d="M889.183 22.9988V12.3364H892.147L894.918 19.2266L897.69 12.3364H900.577V22.9988H898.113V17.1865L895.803 22.9988H893.994L891.685 17.1865V22.9988H889.183ZM878.944 14.6845V12.3364H887.759V14.6845H884.679V22.9988H882.023V14.6845H878.944Z" fill="white"/>
<path d="M586.192 192.381H500.993C510.831 181.24 525.211 174.107 543.011 174.107C561.597 174.107 576.881 180.911 586.192 192.381Z" fill="white"/>
<path d="M817.138 192.381H732.025C741.579 181.234 755.803 174.107 773.973 174.107C792.87 174.107 807.944 180.988 817.138 192.381Z" fill="white"/>
<path d="M900.564 192.381H850.41C856.599 181.833 868.103 175.904 883.05 175.904H900.564V192.381Z" fill="white"/>
<path d="M709.555 192.381H687.774V175.904H709.555V192.381Z" fill="white"/>
<path d="M641.295 192.381H619.514V175.904H641.295V192.381Z" fill="white"/>
<path d="M480.386 192.381H457.707V175.903H480.386V192.381Z" fill="white"/>
<path d="M391.468 192.381H368.116V175.903H391.468V192.381Z" fill="white"/>
</svg>
