<svg width="902" height="192" viewBox="0 0 902 192" fill="none" xmlns="http://www.w3.org/2000/svg">
<path d="M117.917 65.7517C117.917 60.3615 116.224 55.1074 113.078 50.731L84.038 10.3441C81.3026 6.53983 75.2968 8.47488 75.2968 13.1604V178.84C75.2968 183.525 81.3026 185.46 84.038 181.656L113.078 141.269C116.224 136.893 117.917 131.639 117.917 126.248V65.7517Z" fill="#111214"/>
<path d="M64.6417 47.696C64.6417 38.4172 59.6458 29.8572 51.5669 25.2935L7.90808 0.630916C4.69207 -1.18578 0.710938 1.13772 0.710938 4.83138V187.169C0.710938 190.862 4.69207 193.186 7.90808 191.369L51.5669 166.706C59.6458 162.143 64.6417 153.583 64.6417 144.304V47.696Z" fill="#111214"/>
<path d="M181.731 65.7517C181.731 60.3615 183.424 55.1074 186.57 50.731L215.61 10.3441C218.345 6.53983 224.351 8.47488 224.351 13.1604V178.84C224.351 183.525 218.345 185.46 215.61 181.656L186.57 141.269C183.424 136.893 181.731 131.639 181.731 126.248V65.7517Z" fill="#111214"/>
<path d="M235.006 47.696C235.006 38.4172 240.002 29.8572 248.081 25.2935L291.74 0.630916C294.956 -1.18578 298.937 1.13772 298.937 4.83138V187.169C298.937 190.862 294.956 193.186 291.74 191.369L248.081 166.706C240.002 162.143 235.006 153.583 235.006 144.304V47.696Z" fill="#111214"/>
<path d="M128.572 19.0308V172.969C128.572 176.574 133.593 177.45 134.815 174.059L149.634 132.908C149.76 132.558 149.824 132.19 149.824 131.818C149.824 132.19 149.888 132.558 150.014 132.908L164.833 174.059C166.055 177.45 171.076 176.574 171.076 172.969V19.0308C171.076 15.4263 166.055 14.5498 164.833 17.9411L150.014 59.0922C149.888 59.4417 149.824 59.8104 149.824 60.1819C149.824 59.8104 149.76 59.4417 149.634 59.0922L134.815 17.9411C133.593 14.5498 128.572 15.4263 128.572 19.0308Z" fill="#111214"/>
<path d="M846.037 15.9006C846.037 13.6914 847.828 11.9006 850.037 11.9006H863.818C866.027 11.9006 867.818 13.6914 867.818 15.9006V43.3778C867.818 45.5869 869.608 47.3778 871.818 47.3778H897.274C899.483 47.3778 901.274 49.1687 901.274 51.3778V62.2391C901.274 64.4483 899.483 66.2391 897.274 66.2391H871.818C869.608 66.2391 867.818 68.03 867.818 70.2391V122.823C867.818 134.948 874.554 141.684 885.332 141.684H897.274C899.483 141.684 901.274 143.475 901.274 145.684V156.546C901.274 158.755 899.483 160.546 897.274 160.546H883.76C860.857 160.546 846.037 146.624 846.037 123.497V70.2391C846.037 68.03 844.246 66.2391 842.037 66.2391H826.91C824.701 66.2391 822.91 64.4482 822.91 62.2391V51.3778C822.91 49.1687 824.701 47.3778 826.91 47.3778H842.037C844.246 47.3778 846.037 45.5869 846.037 43.3778V15.9006Z" fill="#111214"/>
<path d="M774.683 162.342C739.206 162.342 718.772 135.173 718.772 103.962C718.772 72.7507 739.206 45.5815 774.683 45.5815C799.604 45.5815 821.348 59.4872 826.459 82.4405C826.981 84.7856 825.106 86.8967 822.704 86.8967H808.863C806.894 86.8967 805.255 85.4487 804.658 83.5732C801.131 72.4985 789.25 64.6673 775.132 64.6673C752.678 64.6673 741.451 82.1814 741.451 103.962C741.451 125.742 752.902 143.256 775.356 143.256C789.655 143.256 800.32 136.371 804.704 125.248C805.361 123.58 806.908 122.374 808.701 122.374H822.576C825.023 122.374 826.909 124.559 826.315 126.933C820.987 148.216 801.759 162.342 774.683 162.342Z" fill="#111214"/>
<path d="M688.484 4C688.484 1.79086 690.275 0 692.484 0H706.265C708.474 0 710.265 1.79086 710.265 4V156.546C710.265 158.755 708.474 160.546 706.265 160.546H692.484C690.275 160.546 688.484 158.755 688.484 156.546V70.2391C688.484 68.03 686.693 66.2391 684.484 66.2391H646.005C643.796 66.2391 642.005 68.03 642.005 70.2391V156.546C642.005 158.755 640.214 160.546 638.005 160.546H624.224C622.015 160.546 620.224 158.755 620.224 156.546V70.2391C620.224 68.03 618.433 66.2391 616.224 66.2391H601.097C598.888 66.2391 597.097 64.4482 597.097 62.2391V51.3778C597.097 49.1687 598.888 47.3778 601.097 47.3778H616.224C618.433 47.3778 620.224 45.5869 620.224 43.3778V36.3754C620.224 14.146 634.819 0 657.498 0H666.97C669.179 0 670.97 1.79086 670.97 4V14.8613C670.97 17.0704 669.179 18.8613 666.97 18.8613H659.294C648.741 18.8613 642.005 25.822 642.005 37.049V43.3778C642.005 45.5869 643.796 47.3778 646.005 47.3778H684.484C686.693 47.3778 688.484 45.5869 688.484 43.3778V4Z" fill="#111214"/>
<path d="M543.721 162.342C508.693 162.342 486.913 134.724 486.913 103.288C486.913 71.6281 506.672 45.5815 541.476 45.5815C576.504 45.5815 595.141 70.5053 595.141 99.2464C595.141 100.823 595.075 102.595 594.98 104.211C594.859 106.246 593.15 107.779 591.112 107.779H512.595C510.254 107.779 508.397 109.789 508.787 112.097C511.99 131.056 525.326 143.705 543.721 143.705C558.99 143.705 569.329 137.638 573.345 126.722C573.98 124.994 575.553 123.721 577.395 123.721H591.287C593.769 123.721 595.663 125.967 594.994 128.357C589.193 149.073 569.677 162.342 543.721 162.342ZM509.964 87.1727C509.306 89.5747 511.205 91.8366 513.695 91.8366H568.812C571.144 91.8366 573.003 89.8402 572.569 87.5494C569.749 72.6795 558.525 63.0956 541.476 63.0956C525.262 63.0956 514.301 71.3499 509.964 87.1727Z" fill="#111214"/>
<path d="M372.826 160.546C370.617 160.546 368.826 158.755 368.826 156.546V7.36844C368.826 5.1593 370.617 3.36844 372.826 3.36844H430.35C462.01 3.36844 481.32 22.4543 481.32 50.5217C481.32 64.65 474.841 75.1434 464.533 82.2671C461.924 84.0705 461.766 88.2158 464.142 90.3179C472.173 97.4252 477.221 107.922 477.952 120.353L480.759 156.234C480.94 158.559 479.103 160.546 476.771 160.546H462.102C460.02 160.546 458.286 158.949 458.115 156.874L455.274 122.374C454.151 108.453 444.945 98.5731 431.473 98.5731H396.178C393.969 98.5731 392.178 100.364 392.178 102.573V156.546C392.178 158.755 390.387 160.546 388.178 160.546H372.826ZM392.178 73.9155C392.178 76.1246 393.969 77.9155 396.178 77.9155H429.676C450.109 77.9155 457.968 64.6677 457.968 50.5217C457.968 36.1512 450.109 23.577 429.676 23.577H396.178C393.969 23.577 392.178 25.3678 392.178 27.577V73.9155Z" fill="#111214"/>
<path d="M890.393 22.618C890.117 22.618 889.893 22.3941 889.893 22.118V12.4556C889.893 12.1794 890.117 11.9556 890.393 11.9556H892.519C892.723 11.9556 892.907 12.0796 892.983 12.269L895.164 17.6925C895.332 18.1103 895.924 18.1104 896.092 17.6925L898.274 12.269C898.35 12.0796 898.533 11.9556 898.738 11.9556H900.787C901.063 11.9556 901.287 12.1794 901.287 12.4556V22.118C901.287 22.3941 901.063 22.618 900.787 22.618H899.323C899.047 22.618 898.823 22.3941 898.823 22.118V19.418C898.823 18.8668 898.062 18.7211 897.858 19.2333L896.639 22.3026C896.563 22.493 896.379 22.618 896.174 22.618H895.044C894.839 22.618 894.655 22.493 894.579 22.3026L893.36 19.2333C893.156 18.7211 892.395 18.8668 892.395 19.418V22.118C892.395 22.3941 892.171 22.618 891.895 22.618H890.393ZM880.154 14.3036C879.878 14.3036 879.654 14.0798 879.654 13.8036V12.4556C879.654 12.1794 879.878 11.9556 880.154 11.9556H887.969C888.245 11.9556 888.469 12.1794 888.469 12.4556V13.8036C888.469 14.0798 888.245 14.3036 887.969 14.3036H885.889C885.613 14.3036 885.389 14.5275 885.389 14.8036V22.118C885.389 22.3941 885.165 22.618 884.889 22.618H883.233C882.957 22.618 882.733 22.3941 882.733 22.118V14.8036C882.733 14.5275 882.509 14.3036 882.233 14.3036H880.154Z" fill="#111214"/>
<path d="M581.017 186.025C583.595 188.191 581.87 192 578.503 192H510.572C507.126 192 505.418 188.036 508.091 185.863C517.386 178.308 529.455 173.727 543.721 173.727C558.803 173.727 571.711 178.207 581.017 186.025Z" fill="#111214"/>
<path d="M812.004 186.028C814.571 188.199 812.842 192 809.48 192H741.432C738.014 192 736.293 188.086 738.921 185.903C748.048 178.321 760.093 173.727 774.683 173.727C790 173.727 802.806 178.247 812.004 186.028Z" fill="#111214"/>
<path d="M901.274 188C901.274 190.209 899.483 192 897.274 192H858.105C855.013 192 853.174 188.668 855.289 186.413C861.882 179.382 871.701 175.523 883.76 175.523H897.274C899.483 175.523 901.274 177.314 901.274 179.523V188Z" fill="#111214"/>
<path d="M710.265 188C710.265 190.209 708.474 192 706.265 192H692.484C690.275 192 688.484 190.209 688.484 188V179.523C688.484 177.314 690.275 175.523 692.484 175.523H706.265C708.474 175.523 710.265 177.314 710.265 179.523V188Z" fill="#111214"/>
<path d="M642.005 188C642.005 190.209 640.214 192 638.005 192H624.224C622.015 192 620.224 190.209 620.224 188V179.523C620.224 177.314 622.015 175.523 624.224 175.523H638.005C640.214 175.523 642.005 177.314 642.005 179.523V188Z" fill="#111214"/>
<path d="M481.096 188C481.096 190.209 479.305 192 477.096 192H462.417C460.208 192 458.417 190.209 458.417 188V179.523C458.417 177.313 460.208 175.523 462.417 175.523H477.096C479.305 175.523 481.096 177.313 481.096 179.523V188Z" fill="#111214"/>
<path d="M392.178 188C392.178 190.209 390.387 192 388.178 192H372.826C370.617 192 368.826 190.209 368.826 188V179.523C368.826 177.313 370.617 175.523 372.826 175.523H388.178C390.387 175.523 392.178 177.313 392.178 179.523V188Z" fill="#111214"/>
</svg>
